<svg xmlns="http://www.w3.org/2000/svg" id="svg7729" width="30mm" height="30mm" version="1.1" viewBox="263 145 100.714 100"><metadata id="metadata7863"/><rect style="color:#000;clip-rule:nonzero;display:inline;overflow:visible;visibility:visible;opacity:1;isolation:auto;mix-blend-mode:normal;color-interpolation:sRGB;color-interpolation-filters:linearRGB;solid-color:#000;solid-opacity:1;fill:#fff;fill-opacity:.93999999;fill-rule:nonzero;stroke:none;stroke-width:.730492;stroke-linecap:square;stroke-linejoin:miter;stroke-miterlimit:4;stroke-dasharray:none;stroke-dashoffset:0;stroke-opacity:1;marker:none;color-rendering:auto;image-rendering:auto;shape-rendering:auto;text-rendering:auto;enable-background:accumulate" id="rect4191" width="100.697" height="100.697" x="263" y="144.66" rx="14" ry="14"/><g id="g7733" transform="translate(3.3571425,9.3796424)"><line style="stroke:#0000b2;stroke-width:1.39999998;stroke-linecap:square" id="line7735" x1="320" x2="340" y1="160" y2="160"/><line style="stroke:#0000b2;stroke-width:1.39999998;stroke-linecap:square" id="line7737" x1="280" x2="300" y1="210" y2="210"/><line style="stroke:#0000b2;stroke-width:1.39999998;stroke-linecap:square" id="line7739" x1="330" x2="340" y1="180" y2="180"/><line style="stroke:#0000b2;stroke-width:1.39999998;stroke-linecap:square" id="line7741" x1="320" x2="330" y1="150" y2="150"/><line style="stroke:#0000b2;stroke-width:1.39999998;stroke-linecap:square" id="line7743" x1="290" x2="300" y1="200" y2="200"/><line style="stroke:#0000b2;stroke-width:1.39999998;stroke-linecap:square" id="line7745" x1="330" x2="340" y1="200" y2="200"/><line style="stroke:#0000b2;stroke-width:1.39999998;stroke-linecap:square" id="line7747" x1="320" x2="330" y1="170" y2="170"/><line style="stroke:#0000b2;stroke-width:1.39999998;stroke-linecap:square" id="line7749" x1="280" x2="290" y1="170" y2="170"/><line style="stroke:#0000b2;stroke-width:1.39999998;stroke-linecap:square" id="line7751" x1="290" x2="300" y1="220" y2="220"/><line style="stroke:#0000b2;stroke-width:1.39999998;stroke-linecap:square" id="line7753" x1="280" x2="290" y1="190" y2="190"/><line style="stroke:#0000b2;stroke-width:1.39999998;stroke-linecap:square" id="line7755" x1="290" x2="290" y1="190" y2="200"/><line style="stroke:#0000b2;stroke-width:1.39999998;stroke-linecap:square" id="line7757" x1="290" x2="290" y1="200" y2="220"/><line style="stroke:#0000b2;stroke-width:1.39999998;stroke-linecap:square" id="line7759" x1="330" x2="330" y1="150" y2="170"/><line style="stroke:#0000b2;stroke-width:1.39999998;stroke-linecap:square" id="line7761" x1="330" x2="330" y1="170" y2="180"/></g><path id="path7765" d="m 304.35714,204.37964 28,0 0,30 -28,0 z" style="fill:#fff;stroke:#000;stroke-width:1.39999998;fill-opacity:1"/><text style="font-size:9px;text-anchor:start;fill:gray" id="text7767" x="305.357" y="212.38">J</text><text style="font-size:9px;text-anchor:start;fill:gray" id="text7769" x="305.357" y="222.38">C</text><text style="font-size:9px;text-anchor:start;fill:gray" id="text7771" x="305.357" y="232.38">K</text><text style="font-size:9px;text-anchor:end;fill:gray" id="text7773" x="331.357" y="212.38">Q</text><text style="font-size:9px;text-anchor:end;fill:gray" id="text7775" x="331.357" y="222.38">¬Q</text><text style="font-size:9px;text-anchor:middle;fill:gray" id="text7777" x="318.357" y="242.38">JK</text><circle id="circle7779" cx="303.357" cy="209.38" r="1" style="fill:#0000b2;stroke:#0000b2;stroke-width:1.39999998"/><circle id="circle7781" cx="303.357" cy="219.38" r="1" style="fill:#0000b2;stroke:#0000b2;stroke-width:1.39999998"/><circle id="circle7783" cx="303.357" cy="229.38" r="1" style="fill:#0000b2;stroke:#0000b2;stroke-width:1.39999998"/><circle id="circle7785" cx="333.357" cy="209.38" r="1" style="fill:#b20000;stroke:#b20000;stroke-width:1.39999998"/><circle id="circle7787" cx="333.357" cy="219.38" r="1" style="fill:#b20000;stroke:#b20000;stroke-width:1.39999998"/><path id="path7793" d="m 266.35714,211.37964 16,0 0,16 -16,0 z" style="fill:#fff;stroke:#000;stroke-width:1.39999998;fill-opacity:1"/><circle id="circle7791" cx="274.357" cy="219.38" r="5" style="fill:none;stroke:#000;stroke-width:1.39999998"/><circle id="circle7795" cx="283.357" cy="219.38" r="1" style="fill:#b20000;stroke:#b20000;stroke-width:1.39999998"/><g id="g7797" transform="translate(3.3571425,9.3796424)"><text id="text7799" x="277" y="195" style="font-size:12px;text-anchor:end;fill:#000">1</text><circle style="fill:#b20000;stroke:#b20000;stroke-width:1.39999998" id="circle7801" cx="280" cy="190" r="1"/></g><g id="g7803" transform="translate(3.3571425,9.3796424)"><circle style="fill:#000;stroke:#000;stroke-width:1.39999998" id="circle7805" cx="349" cy="200" r="8"/><circle style="fill:red;stroke:red;stroke-width:.69999999" id="circle7807" cx="349" cy="200" r="7"/><circle style="fill:#0000b2;stroke:#0000b2;stroke-width:1.39999998" id="circle7809" cx="340" cy="200" r="1"/></g><path id="path7813" d="m 322.35714,184.37964 -28,0 0,-30 28,0 z" style="fill:#fff;stroke:#000;stroke-width:1.39999998;fill-opacity:1"/><text style="font-size:9px;text-anchor:end;fill:gray" id="text7815" x="321.357" y="182.38">J</text><text style="font-size:9px;text-anchor:end;fill:gray" id="text7817" x="321.357" y="172.38">C</text><text style="font-size:9px;text-anchor:end;fill:gray" id="text7819" x="321.357" y="162.38">K</text><text style="font-size:9px;text-anchor:start;fill:gray" id="text7821" x="295.357" y="182.38">Q</text><text style="font-size:9px;text-anchor:start;fill:gray" id="text7823" x="295.357" y="172.38">¬Q</text><text style="font-size:9px;text-anchor:middle;fill:gray" id="text7825" x="308.357" y="152.38">JK</text><circle id="circle7827" cx="323.357" cy="179.38" r="1" style="fill:#0000b2;stroke:#0000b2;stroke-width:1.39999998"/><circle id="circle7829" cx="323.357" cy="169.38" r="1" style="fill:#0000b2;stroke:#0000b2;stroke-width:1.39999998"/><circle id="circle7831" cx="323.357" cy="159.38" r="1" style="fill:#0000b2;stroke:#0000b2;stroke-width:1.39999998"/><circle id="circle7833" cx="293.357" cy="179.38" r="1" style="fill:#b20000;stroke:#b20000;stroke-width:1.39999998"/><circle id="circle7835" cx="293.357" cy="169.38" r="1" style="fill:#b20000;stroke:#b20000;stroke-width:1.39999998"/><path id="path7841" d="m 360.35714,177.37964 -16,0 0,-16 16,0 z" style="fill:#fff;stroke:#000;stroke-width:1.39999998;fill-opacity:1"/><circle id="circle7839" cx="352.357" cy="169.38" r="5" style="fill:none;stroke:#000;stroke-width:1.39999998"/><circle id="circle7843" cx="343.357" cy="169.38" r="1" style="fill:#b20000;stroke:#b20000;stroke-width:1.39999998"/><g id="g7845" transform="translate(3.3571425,9.3796424)"><text id="text7847" x="343" y="185" style="font-size:12px;text-anchor:start;fill:#000">1</text><circle style="fill:#b20000;stroke:#b20000;stroke-width:1.39999998" id="circle7849" cx="340" cy="180" r="1"/></g><g id="g7851" transform="translate(3.3571425,9.3796424)"><circle style="fill:#000;stroke:#000;stroke-width:1.39999998" id="circle7853" cx="271" cy="170" r="8"/><circle style="fill:#3f3;stroke:#3f3;stroke-width:.69999999" id="circle7855" cx="271" cy="170" r="7"/><circle style="fill:#0000b2;stroke:#0000b2;stroke-width:1.39999998" id="circle7857" cx="280" cy="170" r="1"/></g></svg>