<svg xmlns="http://www.w3.org/2000/svg" xmlns:svg="http://www.w3.org/2000/svg" xmlns:xlink="http://www.w3.org/1999/xlink" id="svg609" width="388.968" height="243.646" version="1.1" viewBox="36 -62 686.097 429.764"><metadata id="metadata615"/><defs id="defs613"><linearGradient id="linearGradient948"><stop id="stop944" offset="0" style="stop-color:#e6e6e6;stop-opacity:1"/><stop id="stop946" offset="1" style="stop-color:#fff;stop-opacity:.98076922"/></linearGradient><linearGradient id="linearGradient952" x1="676.146" x2="125.931" y1="324.448" y2="30.915" gradientUnits="userSpaceOnUse" xlink:href="#linearGradient948"/></defs><rect id="rect125" width="686.097" height="429.764" x="36" y="-62" style="color:#000;display:inline;overflow:visible;visibility:visible;opacity:1;vector-effect:none;fill:url(#linearGradient952);fill-opacity:1;fill-rule:nonzero;stroke:#000400;stroke-width:1.76388896;stroke-linecap:butt;stroke-linejoin:miter;stroke-miterlimit:4;stroke-dasharray:none;stroke-dashoffset:0;stroke-opacity:1;marker:none;paint-order:markers fill stroke;enable-background:accumulate"/><g style="stroke-linecap:square" id="g597" transform="translate(2.3543845,7.9375001)"><text id="text595" x="60" y="-15" style="font-size:60px;text-anchor:start;fill:#000">Digital</text></g><text id="text599" x="66.895" y="32.993" style="font-size:24px;text-anchor:start;fill:#000;stroke-linecap:square">Logic Designer and Simulator</text><g id="g605" transform="translate(4.0208334,-2.6458333)" style="stroke-linecap:square"><text style="font-size:24px;text-anchor:start;fill:#000" id="text603" x="389.709" y="358"><tspan id="tspan127" style="font-style:italic;font-variant:normal;font-weight:400;font-stretch:normal;font-family:sans-serif;-inkscape-font-specification:'sans-serif Italic'">© 2016-2021 H. Neemann</tspan></text></g><g id="g6439" transform="matrix(0.89213936,0,0,0.89213936,10.856557,22.214753)"><path style="fill:none;stroke:#0000b2;stroke-width:2.79999995;stroke-linecap:square" id="path5402" d="m 280,100 h 4"/><path style="fill:none;stroke:#0000b2;stroke-width:2.79999995;stroke-linecap:square" id="path5404" d="m 280,140 h 4"/><path style="fill:none;stroke:#0000b2;stroke-width:2.79999995;stroke-linecap:square" id="path5406" d="m 280,220 h 4"/><path style="fill:none;stroke:#0000b2;stroke-width:2.79999995;stroke-linecap:square" id="path5408" d="m 280,260 h 4"/><path style="fill:none;stroke:#0000b2;stroke-width:2.79999995;stroke-linecap:square" id="path5410" d="m 560,100 h 4"/><path style="fill:none;stroke:#0000b2;stroke-width:2.79999995;stroke-linecap:square" id="path5412" d="m 560,140 h 4"/><path style="fill:none;stroke:#0000b2;stroke-width:2.79999995;stroke-linecap:square" id="path5414" d="m 560,220 h 4"/><path style="fill:none;stroke:#0000b2;stroke-width:2.79999995;stroke-linecap:square" id="path5416" d="m 560,260 h 4"/><path style="fill:none;stroke:#008e00;stroke-width:2.79999995;stroke-linecap:square" id="path5418" d="m 540,140 v 20 l 140,40 v 40"/><path style="fill:none;stroke:#008e00;stroke-width:2.79999995;stroke-linecap:square" id="path5420" d="m 660,240 h 20 20"/><path style="fill:none;stroke:#008e00;stroke-width:2.79999995;stroke-linecap:square" id="path5422" d="m 240,260 h 40"/><path style="fill:none;stroke:#008e00;stroke-width:2.79999995;stroke-linecap:square" id="path5424" d="m 100,260 h 60"/><path style="fill:none;stroke:#008e00;stroke-width:2.79999995;stroke-linecap:square" id="path5426" d="m 100,100 h 60"/><path style="fill:none;stroke:#008e00;stroke-width:2.79999995;stroke-linecap:square" id="path5428" d="m 240,100 h 40"/><path style="fill:none;stroke:#008e00;stroke-width:2.79999995;stroke-linecap:square" id="path5430" d="m 520,100 h 40"/><path style="fill:none;stroke:#008e00;stroke-width:2.79999995;stroke-linecap:square" id="path5432" d="m 100,180 h 40 40"/><path style="fill:none;stroke:#008e00;stroke-width:2.79999995;stroke-linecap:square" id="path5434" d="m 380,120 h 20 V 80 h 40"/><path style="fill:none;stroke:#008e00;stroke-width:2.79999995;stroke-linecap:square" id="path5436" d="m 400,120 v 40 l -140,40 v 20 h 20"/><path style="fill:none;stroke:#008e00;stroke-width:2.79999995;stroke-linecap:square" id="path5438" d="M 160,80 H 140 V 40 h 400 v 100 h 20"/><path style="fill:none;stroke:#008e00;stroke-width:2.79999995;stroke-linecap:square" id="path5440" d="m 160,240 h -20 v -60 -60 h 20"/><path style="fill:none;stroke:#6f6;stroke-width:2.79999995;stroke-linecap:square" id="path5442" d="m 420,180 v 60 h 20"/><path style="fill:none;stroke:#6f6;stroke-width:2.79999995;stroke-linecap:square" id="path5444" d="m 520,260 h 40"/><path style="fill:none;stroke:#6f6;stroke-width:2.79999995;stroke-linecap:square" id="path5446" d="m 240,180 h 180 v -60 h 20"/><path style="fill:none;stroke:#6f6;stroke-width:2.79999995;stroke-linecap:square" id="path5448" d="m 660,120 h 20 20"/><path style="fill:none;stroke:#6f6;stroke-width:2.79999995;stroke-linecap:square" id="path5450" d="m 400,240 v 40 h 40"/><path style="fill:none;stroke:#6f6;stroke-width:2.79999995;stroke-linecap:square" id="path5452" d="m 380,240 h 20 V 200 L 260,160 v -20 h 20"/><path style="fill:none;stroke:#6f6;stroke-width:2.79999995;stroke-linecap:square" id="path5454" d="m 680,120 v 40 l -140,40 v 20 h 20"/><path style="fill:none;stroke:#6f6;stroke-width:2.79999995;stroke-linecap:square" id="path5456" d="M 540,220 V 320 H 140 v -40 h 20"/><g style="stroke-linecap:square" id="g5474"><circle style="fill:#6f6;stroke:#6f6;stroke-width:2.79999995" id="circle5458" cx="400" cy="240" r="4"/><circle style="fill:#008e00;stroke:#008e00;stroke-width:2.79999995" id="circle5460" cx="680" cy="240" r="4"/><circle style="fill:#008e00;stroke:#008e00;stroke-width:2.79999995" id="circle5462" cx="140" cy="180" r="4"/><circle style="fill:#6f6;stroke:#6f6;stroke-width:2.79999995" id="circle5464" cx="420" cy="180" r="4"/><circle style="fill:#008e00;stroke:#008e00;stroke-width:2.79999995" id="circle5466" cx="400" cy="120" r="4"/><circle style="fill:#6f6;stroke:#6f6;stroke-width:2.79999995" id="circle5468" cx="680" cy="120" r="4"/><circle style="fill:#008e00;stroke:#008e00;stroke-width:2.79999995" id="circle5470" cx="540" cy="140" r="4"/><circle style="fill:#6f6;stroke:#6f6;stroke-width:2.79999995" id="circle5472" cx="540" cy="220" r="4"/></g><g style="stroke-linecap:square" id="g5486"><path style="fill:none;stroke:#000;stroke-width:2.79999995" id="path5476" d="M 210,130 H 161 V 70 h 49 c 10,0 30,10 29,30 0,20 -19,30 -29,30 z"/><circle style="fill:#0000b2;stroke:#0000b2;stroke-width:2.79999995" id="circle5478" cx="160" cy="80" r="2"/><circle style="fill:#0000b2;stroke:#0000b2;stroke-width:2.79999995" id="circle5480" cx="160" cy="100" r="2"/><circle style="fill:#0000b2;stroke:#0000b2;stroke-width:2.79999995" id="circle5482" cx="160" cy="120" r="2"/><circle style="fill:#b20000;stroke:#b20000;stroke-width:2.79999995" id="circle5484" cx="240" cy="100" r="2"/></g><g style="stroke-linecap:square" id="g5498"><path style="fill:none;stroke:#000;stroke-width:2.79999995" id="path5488" d="m 210,290 h -49 v -60 h 49 c 10,0 30,10 29,30 0,20 -19,30 -29,30 z"/><circle style="fill:#0000b2;stroke:#0000b2;stroke-width:2.79999995" id="circle5490" cx="160" cy="240" r="2"/><circle style="fill:#0000b2;stroke:#0000b2;stroke-width:2.79999995" id="circle5492" cx="160" cy="260" r="2"/><circle style="fill:#0000b2;stroke:#0000b2;stroke-width:2.79999995" id="circle5494" cx="160" cy="280" r="2"/><circle style="fill:#b20000;stroke:#b20000;stroke-width:2.79999995" id="circle5496" cx="240" cy="260" r="2"/></g><g style="stroke-linecap:square" id="g5508"><path style="fill:none;stroke:#000;stroke-width:2.79999995" id="path5500" d="m 181,158 38,22 -38,22 z"/><circle style="fill:none;stroke:#000;stroke-width:2.79999995" id="circle5502" cx="230" cy="180" r="9"/><circle style="fill:#0000b2;stroke:#0000b2;stroke-width:2.79999995" id="circle5504" cx="180" cy="180" r="2"/><circle style="fill:#b20000;stroke:#b20000;stroke-width:2.79999995" id="circle5506" cx="240" cy="180" r="2"/></g><g style="stroke-linecap:square" id="g5520"><path style="fill:none;stroke:#000;stroke-width:2.79999995" id="path5510" d="m 69,85 h 30 v 30 H 69 Z"/><circle style="fill:#008e00;stroke:#008e00;stroke-width:2.79999995" id="circle5512" cx="84" cy="100" r="9"/><text id="text5516" x="55" y="109" style="font-size:24px;text-anchor:end;fill:#000"><tspan id="tspan5514" style="font-style:italic">J</tspan></text><circle style="fill:#b20000;stroke:#b20000;stroke-width:2.79999995" id="circle5518" cx="100" cy="100" r="2"/></g><g style="stroke-linecap:square" id="g5532"><path style="fill:none;stroke:#000;stroke-width:2.79999995" id="path5522" d="m 69,165 h 30 v 30 H 69 Z"/><circle style="fill:#008e00;stroke:#008e00;stroke-width:2.79999995" id="circle5524" cx="84" cy="180" r="9"/><text id="text5528" x="55" y="189" style="font-size:24px;text-anchor:end;fill:#000"><tspan id="tspan5526" style="font-style:italic">C</tspan></text><circle style="fill:#b20000;stroke:#b20000;stroke-width:2.79999995" id="circle5530" cx="100" cy="180" r="2"/></g><g style="stroke-linecap:square" id="g5544"><path style="fill:none;stroke:#000;stroke-width:2.79999995" id="path5534" d="m 310,150 h -30 c 10,-16 10,-44 0,-60 h 20 c 30,0 50,10 60,30 -10,20 -30,30 -50,30 z"/><circle style="fill:none;stroke:#000;stroke-width:2.79999995" id="circle5536" cx="370" cy="120" r="9"/><circle style="fill:#0000b2;stroke:#0000b2;stroke-width:2.79999995" id="circle5538" cx="280" cy="100" r="2"/><circle style="fill:#0000b2;stroke:#0000b2;stroke-width:2.79999995" id="circle5540" cx="280" cy="140" r="2"/><circle style="fill:#b20000;stroke:#b20000;stroke-width:2.79999995" id="circle5542" cx="380" cy="120" r="2"/></g><g style="stroke-linecap:square" id="g5556"><path style="fill:none;stroke:#000;stroke-width:2.79999995" id="path5546" d="m 310,270 h -30 c 10,-16 10,-44 0,-60 h 20 c 30,0 50,10 60,30 -10,20 -30,30 -50,30 z"/><circle style="fill:none;stroke:#000;stroke-width:2.79999995" id="circle5548" cx="370" cy="240" r="9"/><circle style="fill:#0000b2;stroke:#0000b2;stroke-width:2.79999995" id="circle5550" cx="280" cy="220" r="2"/><circle style="fill:#0000b2;stroke:#0000b2;stroke-width:2.79999995" id="circle5552" cx="280" cy="260" r="2"/><circle style="fill:#b20000;stroke:#b20000;stroke-width:2.79999995" id="circle5554" cx="380" cy="240" r="2"/></g><g style="stroke-linecap:square" id="g5566"><path style="fill:none;stroke:#000;stroke-width:2.79999995" id="path5558" d="M 490,130 H 441 V 70 h 49 c 10,0 30,10 29,30 0,20 -19,30 -29,30 z"/><circle style="fill:#0000b2;stroke:#0000b2;stroke-width:2.79999995" id="circle5560" cx="440" cy="80" r="2"/><circle style="fill:#0000b2;stroke:#0000b2;stroke-width:2.79999995" id="circle5562" cx="440" cy="120" r="2"/><circle style="fill:#b20000;stroke:#b20000;stroke-width:2.79999995" id="circle5564" cx="520" cy="100" r="2"/></g><g style="stroke-linecap:square" id="g5576"><path style="fill:none;stroke:#000;stroke-width:2.79999995" id="path5568" d="m 490,290 h -49 v -60 h 49 c 10,0 30,10 29,30 0,20 -19,30 -29,30 z"/><circle style="fill:#0000b2;stroke:#0000b2;stroke-width:2.79999995" id="circle5570" cx="440" cy="240" r="2"/><circle style="fill:#0000b2;stroke:#0000b2;stroke-width:2.79999995" id="circle5572" cx="440" cy="280" r="2"/><circle style="fill:#b20000;stroke:#b20000;stroke-width:2.79999995" id="circle5574" cx="520" cy="260" r="2"/></g><g style="stroke-linecap:square" id="g5588"><path style="fill:none;stroke:#000;stroke-width:2.79999995" id="path5578" d="m 590,150 h -30 c 10,-16 10,-44 0,-60 h 20 c 30,0 50,10 60,30 -10,20 -30,30 -50,30 z"/><circle style="fill:none;stroke:#000;stroke-width:2.79999995" id="circle5580" cx="650" cy="120" r="9"/><circle style="fill:#0000b2;stroke:#0000b2;stroke-width:2.79999995" id="circle5582" cx="560" cy="100" r="2"/><circle style="fill:#0000b2;stroke:#0000b2;stroke-width:2.79999995" id="circle5584" cx="560" cy="140" r="2"/><circle style="fill:#b20000;stroke:#b20000;stroke-width:2.79999995" id="circle5586" cx="660" cy="120" r="2"/></g><g style="stroke-linecap:square" id="g5600"><path style="fill:none;stroke:#000;stroke-width:2.79999995" id="path5590" d="m 590,270 h -30 c 10,-16 10,-44 0,-60 h 20 c 30,0 50,10 60,30 -10,20 -30,30 -50,30 z"/><circle style="fill:none;stroke:#000;stroke-width:2.79999995" id="circle5592" cx="650" cy="240" r="9"/><circle style="fill:#0000b2;stroke:#0000b2;stroke-width:2.79999995" id="circle5594" cx="560" cy="220" r="2"/><circle style="fill:#0000b2;stroke:#0000b2;stroke-width:2.79999995" id="circle5596" cx="560" cy="260" r="2"/><circle style="fill:#b20000;stroke:#b20000;stroke-width:2.79999995" id="circle5598" cx="660" cy="240" r="2"/></g><g style="stroke-linecap:square" id="g5612"><circle style="fill:#6f6;stroke:#6f6;stroke-width:2.79999995" id="circle5602" cx="716" cy="120" r="9"/><circle style="fill:none;stroke:#000;stroke-width:2.79999995" id="circle5604" cx="716" cy="120" r="15"/><text id="text5608" x="745" y="129" style="font-size:24px;text-anchor:start;fill:#000"><tspan id="tspan5606" style="font-style:italic">Q</tspan></text><circle style="fill:#0000b2;stroke:#0000b2;stroke-width:2.79999995" id="circle5610" cx="700" cy="120" r="2"/></g><g style="stroke-linecap:square" id="g5624"><circle style="fill:#008e00;stroke:#008e00;stroke-width:2.79999995" id="circle5614" cx="716" cy="240" r="9"/><circle style="fill:none;stroke:#000;stroke-width:2.79999995" id="circle5616" cx="716" cy="240" r="15"/><text id="text5620" x="745" y="249" style="font-size:24px;text-anchor:start;fill:#000"><tspan id="tspan5618" style="font-style:italic">¬Q</tspan></text><circle style="fill:#0000b2;stroke:#0000b2;stroke-width:2.79999995" id="circle5622" cx="700" cy="240" r="2"/></g><g style="stroke-linecap:square" id="g5636"><path style="fill:none;stroke:#000;stroke-width:2.79999995" id="path5626" d="m 69,245 h 30 v 30 H 69 Z"/><circle style="fill:#008e00;stroke:#008e00;stroke-width:2.79999995" id="circle5628" cx="84" cy="260" r="9"/><text id="text5632" x="55" y="269" style="font-size:24px;text-anchor:end;fill:#000"><tspan id="tspan5630" style="font-style:italic">K</tspan></text><circle style="fill:#b20000;stroke:#b20000;stroke-width:2.79999995" id="circle5634" cx="100" cy="260" r="2"/></g></g></svg>