<svg xmlns="http://www.w3.org/2000/svg" xmlns:svg="http://www.w3.org/2000/svg" xmlns:xlink="http://www.w3.org/1999/xlink" id="svg11300" width="48" height="48" version="1.1"><defs id="defs3"><linearGradient id="linearGradient2846"><stop id="stop2848" offset="0" style="stop-color:#8a8a8a;stop-opacity:1"/><stop id="stop2850" offset="1" style="stop-color:#484848;stop-opacity:1"/></linearGradient><linearGradient id="linearGradient2366"><stop id="stop2368" offset="0" style="stop-color:#fff;stop-opacity:1"/><stop id="stop2374" offset=".5" style="stop-color:#fff;stop-opacity:.21904762"/><stop id="stop2370" offset="1" style="stop-color:#fff;stop-opacity:1"/></linearGradient><linearGradient id="linearGradient4487"><stop id="stop4489" offset="0" style="stop-color:#fff;stop-opacity:1"/><stop id="stop4491" offset="1" style="stop-color:#fff;stop-opacity:0"/></linearGradient><linearGradient id="linearGradient4477"><stop id="stop4479" offset="0" style="stop-color:#000;stop-opacity:1"/><stop id="stop4481" offset="1" style="stop-color:#000;stop-opacity:0"/></linearGradient><linearGradient id="linearGradient4467"><stop id="stop4469" offset="0" style="stop-color:#fff;stop-opacity:1"/><stop id="stop4471" offset="1" style="stop-color:#fff;stop-opacity:.24761905"/></linearGradient><linearGradient id="linearGradient4454"><stop id="stop4456" offset="0" style="stop-color:#729fcf;stop-opacity:.20784314"/><stop id="stop4458" offset="1" style="stop-color:#729fcf;stop-opacity:.6761905"/></linearGradient><linearGradient id="linearGradient4440"><stop id="stop4442" offset="0" style="stop-color:#7d7d7d;stop-opacity:1"/><stop id="stop4448" offset=".5" style="stop-color:#b1b1b1;stop-opacity:1"/><stop id="stop4444" offset="1" style="stop-color:#686868;stop-opacity:1"/></linearGradient><radialGradient id="radialGradient4493" cx="24.13" cy="37.968" r="16.529" fx="24.13" fy="37.968" gradientTransform="matrix(1,0,0,0.237968,0,28.93278)" gradientUnits="userSpaceOnUse" xlink:href="#linearGradient4487"/><radialGradient id="radialGradient2842" cx="24.13" cy="37.968" r="16.529" fx="24.13" fy="37.968" gradientTransform="matrix(1,0,0,0.237968,0,28.93278)" gradientUnits="userSpaceOnUse" xlink:href="#linearGradient4477"/><radialGradient id="radialGradient2097" cx="23.071" cy="35.127" r="10.319" fx="23.071" fy="35.127" gradientTransform="matrix(0.914812,0.01265023,-0.00821502,0.213562,2.253914,27.18889)" gradientUnits="userSpaceOnUse" xlink:href="#linearGradient2091"/><linearGradient id="linearGradient7186" x1="46.835" x2="45.38" y1="45.264" y2="50.94" gradientUnits="userSpaceOnUse" xlink:href="#linearGradient2871"/><linearGradient id="linearGradient7184" x1="18.936" x2="53.589" y1="23.668" y2="26.649" gradientUnits="userSpaceOnUse" xlink:href="#linearGradient2402"/><linearGradient id="linearGradient7182" x1="46.835" x2="45.38" y1="45.264" y2="50.94" gradientUnits="userSpaceOnUse" xlink:href="#linearGradient2871"/><linearGradient id="linearGradient7180" x1="62.514" x2="15.985" y1="36.061" y2="20.609" gradientUnits="userSpaceOnUse" xlink:href="#linearGradient2380"/><linearGradient id="linearGradient7189" x1="13.435" x2="22.375" y1="13.604" y2="23.554" gradientTransform="matrix(-1,0,0,-1,47.93934,50.02474)" gradientUnits="userSpaceOnUse" xlink:href="#linearGradient7179"/><linearGradient id="linearGradient7185" x1="13.435" x2="22.375" y1="13.604" y2="23.554" gradientUnits="userSpaceOnUse" xlink:href="#linearGradient7179"/><linearGradient id="linearGradient1322"><stop id="stop1324" offset="0" style="stop-color:#729fcf;stop-opacity:1"/><stop id="stop1326" offset="1" style="stop-color:#5187d6;stop-opacity:1"/></linearGradient><linearGradient id="linearGradient2316"><stop id="stop2318" offset="0" style="stop-color:#000;stop-opacity:1"/><stop id="stop2320" offset="1" style="stop-color:#fff;stop-opacity:.65979379"/></linearGradient><linearGradient id="linearGradient7179"><stop id="stop7181" offset="0" style="stop-color:#fff;stop-opacity:1"/><stop id="stop7183" offset="1" style="stop-color:#fff;stop-opacity:0"/></linearGradient><linearGradient id="linearGradient1491" x1="5.965" x2="52.854" y1="26.048" y2="26.048" gradientUnits="userSpaceOnUse" xlink:href="#linearGradient2797"/><linearGradient id="linearGradient2797"><stop id="stop2799" offset="0" style="stop-color:#fff;stop-opacity:1"/><stop id="stop2801" offset="1" style="stop-color:#fff;stop-opacity:0"/></linearGradient><linearGradient id="linearGradient1493" x1="5.965" x2="52.854" y1="26.048" y2="26.048" gradientUnits="userSpaceOnUse" xlink:href="#linearGradient2797"/><linearGradient id="linearGradient2402"><stop id="stop2404" offset="0" style="stop-color:#729fcf;stop-opacity:1"/><stop id="stop2406" offset="1" style="stop-color:#528ac5;stop-opacity:1"/></linearGradient><linearGradient id="linearGradient2871"><stop id="stop2873" offset="0" style="stop-color:#3465a4;stop-opacity:1"/><stop id="stop2875" offset="1" style="stop-color:#3465a4;stop-opacity:1"/></linearGradient><linearGradient id="linearGradient2696" x1="32.648" x2="37.124" y1="30.749" y2="24.842" gradientTransform="translate(-48.77039,-5.765705)" gradientUnits="userSpaceOnUse" xlink:href="#linearGradient2690"/><linearGradient id="linearGradient2690"><stop id="stop2692" offset="0" style="stop-color:#c4d7eb;stop-opacity:1"/><stop id="stop2694" offset="1" style="stop-color:#c4d7eb;stop-opacity:0"/></linearGradient><linearGradient id="linearGradient2688" x1="36.714" x2="37.124" y1="31.456" y2="24.842" gradientTransform="translate(-48.77039,-5.765705)" gradientUnits="userSpaceOnUse" xlink:href="#linearGradient2682"/><linearGradient id="linearGradient2682"><stop id="stop2684" offset="0" style="stop-color:#3977c3;stop-opacity:1"/><stop id="stop2686" offset="1" style="stop-color:#89aedc;stop-opacity:0"/></linearGradient><linearGradient id="linearGradient2380"><stop id="stop2382" offset="0" style="stop-color:#b9cfe7;stop-opacity:1"/><stop id="stop2384" offset="1" style="stop-color:#729fcf;stop-opacity:1"/></linearGradient><linearGradient id="linearGradient1486" x1="13.479" x2="15.419" y1="10.612" y2="19.115" gradientTransform="translate(-48.30498,-6.043298)" gradientUnits="userSpaceOnUse" xlink:href="#linearGradient2831"/><linearGradient id="linearGradient2831"><stop id="stop2833" offset="0" style="stop-color:#3465a4;stop-opacity:1"/><stop id="stop2855" offset=".333" style="stop-color:#5b86be;stop-opacity:1"/><stop id="stop2835" offset="1" style="stop-color:#83a8d8;stop-opacity:0"/></linearGradient><linearGradient id="linearGradient1488" x1="37.128" x2="37.065" y1="29.73" y2="26.194" gradientTransform="matrix(-1,0,0,-1,-1.24248,40.0817)" gradientUnits="userSpaceOnUse" xlink:href="#linearGradient2847"/><linearGradient id="linearGradient2847"><stop id="stop2849" offset="0" style="stop-color:#3465a4;stop-opacity:1"/><stop id="stop2851" offset="1" style="stop-color:#3465a4;stop-opacity:0"/></linearGradient><radialGradient id="radialGradient1503" cx="24.837" cy="36.421" r="15.645" fx="24.837" fy="36.421" gradientTransform="matrix(1,0,0,0.536723,0,16.87306)" gradientUnits="userSpaceOnUse" xlink:href="#linearGradient8662"/><linearGradient id="linearGradient8662"><stop id="stop8664" offset="0" style="stop-color:#000;stop-opacity:1"/><stop id="stop8666" offset="1" style="stop-color:#000;stop-opacity:0"/></linearGradient><linearGradient id="linearGradient7916"><stop id="stop7918" offset="0" style="stop-color:#fff;stop-opacity:1"/><stop id="stop7920" offset="1" style="stop-color:#fff;stop-opacity:.34020618"/></linearGradient><linearGradient id="linearGradient2091"><stop id="stop2093" offset="0" style="stop-color:#000;stop-opacity:1"/><stop id="stop2095" offset="1" style="stop-color:#000;stop-opacity:0"/></linearGradient><linearGradient id="linearGradient2091-4"><stop id="stop2093-5" offset="0" style="stop-color:#000;stop-opacity:1"/><stop id="stop2095-1" offset="1" style="stop-color:#000;stop-opacity:0"/></linearGradient><linearGradient id="linearGradient7916-4"><stop id="stop7918-2" offset="0" style="stop-color:#fff;stop-opacity:1"/><stop id="stop7920-2" offset="1" style="stop-color:#fff;stop-opacity:.34020618"/></linearGradient><linearGradient id="linearGradient8662-1"><stop id="stop8664-8" offset="0" style="stop-color:#000;stop-opacity:1"/><stop id="stop8666-3" offset="1" style="stop-color:#000;stop-opacity:0"/></linearGradient><radialGradient id="radialGradient1503-3" cx="24.837" cy="36.421" r="15.645" fx="24.837" fy="36.421" gradientTransform="matrix(1,0,0,0.536723,0,16.87306)" gradientUnits="userSpaceOnUse" xlink:href="#linearGradient8662-1"/><linearGradient id="linearGradient2847-9"><stop id="stop2849-2" offset="0" style="stop-color:#3465a4;stop-opacity:1"/><stop id="stop2851-2" offset="1" style="stop-color:#3465a4;stop-opacity:0"/></linearGradient><linearGradient id="linearGradient1488-8" x1="37.128" x2="37.065" y1="29.73" y2="26.194" gradientTransform="matrix(-1,0,0,-1,-1.24248,40.0817)" gradientUnits="userSpaceOnUse" xlink:href="#linearGradient2847-9"/><linearGradient id="linearGradient2831-3"><stop id="stop2833-8" offset="0" style="stop-color:#3465a4;stop-opacity:1"/><stop id="stop2855-6" offset=".333" style="stop-color:#5b86be;stop-opacity:1"/><stop id="stop2835-0" offset="1" style="stop-color:#83a8d8;stop-opacity:0"/></linearGradient><linearGradient id="linearGradient1486-4" x1="13.479" x2="15.419" y1="10.612" y2="19.115" gradientTransform="translate(-48.30498,-6.043298)" gradientUnits="userSpaceOnUse" xlink:href="#linearGradient2831-3"/><linearGradient id="linearGradient2380-5"><stop id="stop2382-2" offset="0" style="stop-color:#b9cfe7;stop-opacity:1"/><stop id="stop2384-4" offset="1" style="stop-color:#729fcf;stop-opacity:1"/></linearGradient><linearGradient id="linearGradient2682-7"><stop id="stop2684-4" offset="0" style="stop-color:#3977c3;stop-opacity:1"/><stop id="stop2686-2" offset="1" style="stop-color:#89aedc;stop-opacity:0"/></linearGradient><linearGradient id="linearGradient2688-2" x1="36.714" x2="37.124" y1="31.456" y2="24.842" gradientTransform="translate(-48.77039,-5.765705)" gradientUnits="userSpaceOnUse" xlink:href="#linearGradient2682-7"/><linearGradient id="linearGradient2690-3"><stop id="stop2692-4" offset="0" style="stop-color:#c4d7eb;stop-opacity:1"/><stop id="stop2694-9" offset="1" style="stop-color:#c4d7eb;stop-opacity:0"/></linearGradient><linearGradient id="linearGradient2696-0" x1="32.648" x2="37.124" y1="30.749" y2="24.842" gradientTransform="translate(-48.77039,-5.765705)" gradientUnits="userSpaceOnUse" xlink:href="#linearGradient2690-3"/><linearGradient id="linearGradient2871-3"><stop id="stop2873-7" offset="0" style="stop-color:#3465a4;stop-opacity:1"/><stop id="stop2875-0" offset="1" style="stop-color:#3465a4;stop-opacity:1"/></linearGradient><linearGradient id="linearGradient2402-2"><stop id="stop2404-8" offset="0" style="stop-color:#729fcf;stop-opacity:1"/><stop id="stop2406-0" offset="1" style="stop-color:#528ac5;stop-opacity:1"/></linearGradient><linearGradient id="linearGradient1493-3" x1="5.965" x2="52.854" y1="26.048" y2="26.048" gradientUnits="userSpaceOnUse" xlink:href="#linearGradient2797-7"/><linearGradient id="linearGradient2797-7"><stop id="stop2799-4" offset="0" style="stop-color:#fff;stop-opacity:1"/><stop id="stop2801-0" offset="1" style="stop-color:#fff;stop-opacity:0"/></linearGradient><linearGradient id="linearGradient1491-2" x1="5.965" x2="52.854" y1="26.048" y2="26.048" gradientUnits="userSpaceOnUse" xlink:href="#linearGradient2797-7"/><linearGradient id="linearGradient7179-1"><stop id="stop7181-0" offset="0" style="stop-color:#fff;stop-opacity:1"/><stop id="stop7183-4" offset="1" style="stop-color:#fff;stop-opacity:0"/></linearGradient><linearGradient id="linearGradient2316-2"><stop id="stop2318-6" offset="0" style="stop-color:#000;stop-opacity:1"/><stop id="stop2320-9" offset="1" style="stop-color:#fff;stop-opacity:.65979379"/></linearGradient><linearGradient id="linearGradient1322-8"><stop id="stop1324-1" offset="0" style="stop-color:#729fcf;stop-opacity:1"/><stop id="stop1326-2" offset="1" style="stop-color:#5187d6;stop-opacity:1"/></linearGradient><linearGradient id="linearGradient7185-5" x1="13.435" x2="22.375" y1="13.604" y2="23.554" gradientUnits="userSpaceOnUse" xlink:href="#linearGradient7179-1"/><linearGradient id="linearGradient7189-6" x1="13.435" x2="22.375" y1="13.604" y2="23.554" gradientTransform="matrix(-1,0,0,-1,47.93934,50.02474)" gradientUnits="userSpaceOnUse" xlink:href="#linearGradient7179-1"/><linearGradient id="linearGradient7180-0" x1="62.514" x2="15.985" y1="36.061" y2="20.609" gradientUnits="userSpaceOnUse" xlink:href="#linearGradient2380-5"/><linearGradient id="linearGradient7182-5" x1="46.835" x2="45.38" y1="45.264" y2="50.94" gradientUnits="userSpaceOnUse" xlink:href="#linearGradient2871-3"/><linearGradient id="linearGradient7184-1" x1="18.936" x2="53.589" y1="23.668" y2="26.649" gradientUnits="userSpaceOnUse" xlink:href="#linearGradient2402-2"/><linearGradient id="linearGradient7186-6" x1="46.835" x2="45.38" y1="45.264" y2="50.94" gradientUnits="userSpaceOnUse" xlink:href="#linearGradient2871-3"/><radialGradient id="radialGradient2097-3" cx="23.071" cy="35.127" r="10.319" fx="23.071" fy="35.127" gradientTransform="matrix(0.914812,0.01265023,-0.00821502,0.213562,2.253914,27.18889)" gradientUnits="userSpaceOnUse" xlink:href="#linearGradient2091-4"/><linearGradient id="linearGradient4440-0"><stop id="stop4442-8" offset="0" style="stop-color:#7d7d7d;stop-opacity:1"/><stop id="stop4448-3" offset=".5" style="stop-color:#b1b1b1;stop-opacity:1"/><stop id="stop4444-5" offset="1" style="stop-color:#686868;stop-opacity:1"/></linearGradient><linearGradient id="linearGradient4454-4"><stop id="stop4456-1" offset="0" style="stop-color:#729fcf;stop-opacity:.20784314"/><stop id="stop4458-5" offset="1" style="stop-color:#729fcf;stop-opacity:.6761905"/></linearGradient><linearGradient id="linearGradient4467-5"><stop id="stop4469-9" offset="0" style="stop-color:#fff;stop-opacity:1"/><stop id="stop4471-3" offset="1" style="stop-color:#fff;stop-opacity:.24761905"/></linearGradient><linearGradient id="linearGradient2366-6"><stop id="stop2368-3" offset="0" style="stop-color:#fff;stop-opacity:1"/><stop id="stop2374-5" offset=".5" style="stop-color:#fff;stop-opacity:.21904762"/><stop id="stop2370-0" offset="1" style="stop-color:#fff;stop-opacity:1"/></linearGradient><linearGradient id="linearGradient2846-0"><stop id="stop2848-8" offset="0" style="stop-color:#8a8a8a;stop-opacity:1"/><stop id="stop2850-7" offset="1" style="stop-color:#484848;stop-opacity:1"/></linearGradient><linearGradient id="linearGradient3882" x1="27.366" x2="31.336" y1="26.58" y2="30.558" gradientUnits="userSpaceOnUse" xlink:href="#linearGradient2846"/><linearGradient id="linearGradient3884" x1="30.656" x2="33.219" y1="34" y2="31.063" gradientTransform="matrix(1.334593,0,0,1.291292,-6.973842,-7.460658)" gradientUnits="userSpaceOnUse" xlink:href="#linearGradient4440"/><linearGradient id="linearGradient3886" x1="18.293" x2="17.501" y1="13.602" y2="25.743" gradientUnits="userSpaceOnUse" xlink:href="#linearGradient2366"/><radialGradient id="radialGradient3888" cx="18.241" cy="21.818" r="8.309" fx="18.241" fy="21.818" gradientUnits="userSpaceOnUse" xlink:href="#linearGradient4454"/><radialGradient id="radialGradient3890" cx="15.414" cy="13.078" r="6.656" fx="15.414" fy="13.078" gradientTransform="matrix(2.592963,0,0,2.252104,-25.05975,-18.941)" gradientUnits="userSpaceOnUse" xlink:href="#linearGradient4467"/></defs><metadata id="metadata4"/><g id="layer2"><path id="path4475" d="m 40.65864,37.967922 a 16.528622,3.9332814 0 1 1 -33.0572434,0 16.528622,3.9332814 0 1 1 33.0572434,0 z" transform="matrix(1.446431,0,0,1.51999,-10.97453,-17.75168)" style="opacity:.17112301;color:#000;fill:url(#radialGradient2842);fill-opacity:1;fill-rule:evenodd;stroke:none;stroke-width:1;marker:none;visibility:visible;display:inline;overflow:visible"/><path id="path4485" d="m 40.65864,37.967922 a 16.528622,3.9332814 0 1 1 -33.0572434,0 16.528622,3.9332814 0 1 1 33.0572434,0 z" transform="matrix(0.497764,0,0,0.609621,8.973526,15.61929)" style="color:#000;fill:url(#radialGradient4493);fill-opacity:1;fill-rule:evenodd;stroke:none;stroke-width:1;marker:none;visibility:visible;display:inline;overflow:visible"/></g><g id="layer3"><g id="g1772" transform="translate(0.12372323,0.07535096)"><path id="path2844" d="m 18.627569,3.1435548 c -8.13913,0 -14.7448008,6.6056711 -14.7448008,14.7448012 0,8.13913 6.6056708,14.744802 14.7448008,14.744802 3.479555,0 6.551001,-1.384393 9.073723,-3.402647 -0.205377,1.006881 -0.07803,2.035368 0.756144,2.759925 l 10.964084,9.52741 c 1.233416,1.071329 3.087462,0.93096 4.15879,-0.302457 1.071328,-1.233418 0.930959,-3.087462 -0.302457,-4.15879 L 32.313769,27.529188 c -0.671527,-0.583279 -1.492878,-0.755969 -2.306238,-0.642722 1.9867,-2.512422 3.364839,-5.548803 3.364839,-8.99811 0,-8.1391301 -6.605671,-14.7448012 -14.744801,-14.7448012 z m -0.07562,1.2261833 c 7.639459,0 13.291775,4.7889505 13.291775,13.2917749 0,8.675113 -5.81669,13.291775 -13.291775,13.291775 -7.302949,0 -13.2917734,-5.478092 -13.2917734,-13.291775 0,-7.9841069 5.8246384,-13.291775 13.2917734,-13.2917749 z" style="color:#000;fill:#dcdcdc;fill-opacity:1;fill-rule:evenodd;stroke:url(#linearGradient3882);stroke-width:2.00000095;stroke-linecap:round;stroke-linejoin:miter;stroke-miterlimit:10;stroke-opacity:1;stroke-dasharray:none;stroke-dashoffset:0;marker:none;visibility:visible;display:inline;overflow:visible"/><path id="path4430" d="m 18.602905,3.0803551 c -8.16544,0 -14.7924642,6.627024 -14.7924642,14.7924639 0,8.16544 6.6270242,14.792464 14.7924642,14.792464 3.490803,0 6.572177,-1.388867 9.103055,-3.413645 -0.206041,1.010136 -0.07829,2.041947 0.758587,2.768846 l 10.999526,9.558207 c 1.237403,1.074792 3.097442,0.93397 4.172233,-0.303435 1.074791,-1.237404 0.933968,-3.097442 -0.303435,-4.172233 L 32.333346,27.544815 c -0.673698,-0.585164 -1.497704,-0.758413 -2.313693,-0.644799 1.993122,-2.520544 3.375716,-5.56674 3.375716,-9.027197 0,-8.1654399 -6.627024,-14.7924639 -14.792464,-14.7924639 z m -0.07586,3.1860692 c 6.281108,2e-7 11.378818,5.0977107 11.378818,11.3788187 0,6.281108 -5.09771,11.378818 -11.378818,11.378818 -6.281108,0 -11.3788184,-5.09771 -11.3788184,-11.378818 2e-7,-6.281108 5.0977104,-11.3788187 11.3788184,-11.3788187 z" style="color:#000;fill:#dcdcdc;fill-opacity:1;fill-rule:evenodd;stroke:none;stroke-width:1.00000036;marker:none;visibility:visible;display:inline;overflow:visible"/><path id="path4438" d="m 39.507004,41.57769 c -0.478672,-2.273187 1.39733,-4.811422 3.584053,-4.788375 0,0 -10.760367,-9.258111 -10.760367,-9.258111 -2.944791,-0.05671 -4.269502,2.272616 -3.776814,4.599922 l 10.953128,9.446564 z" style="color:#000;fill:url(#linearGradient3884);fill-opacity:1;fill-rule:evenodd;stroke:none;stroke-width:1;marker:none;visibility:visible;display:inline;overflow:visible"/><path id="path4450" d="m 28.549437,18.920233 a 11.048544,11.048544 0 1 1 -22.0970883,0 11.048544,11.048544 0 1 1 22.0970883,0 z" transform="matrix(1.245743,0,0,1.245743,-3.425346,-6.177033)" style="color:#000;fill:none;stroke:url(#linearGradient3886);stroke-width:.8027336;stroke-linecap:round;stroke-linejoin:miter;stroke-miterlimit:10;stroke-opacity:1;stroke-dasharray:none;stroke-dashoffset:0;marker:none;visibility:visible;display:inline;overflow:visible"/><rect id="rect4495" width="19.048" height="4.44" x="40.373" y=".141" rx="2.137" ry="1.888" transform="matrix(0.752986,0.658037,-0.648902,0.760872,0,0)" style="opacity:.43315507;color:#000;fill:none;stroke:#fff;stroke-width:1.00003111;stroke-linecap:round;stroke-linejoin:miter;stroke-miterlimit:10;stroke-opacity:1;stroke-dasharray:none;stroke-dashoffset:0;marker:none;visibility:visible;display:inline;overflow:visible"/><path id="path4452" d="m 25.897786,18.478292 a 8.3085051,8.3085051 0 1 1 -16.61701,0 8.3085051,8.3085051 0 1 1 16.61701,0 z" transform="matrix(1.398614,0,0,1.398614,-6.224338,-8.298958)" style="color:#000;fill:url(#radialGradient3888);fill-opacity:1;fill-rule:evenodd;stroke:#3063a3;stroke-width:.71499395;stroke-linecap:round;stroke-linejoin:miter;stroke-miterlimit:10;stroke-opacity:1;stroke-dashoffset:0;marker:none;visibility:visible"/><path id="path4462" d="m 18.156915,7.3966938 c -5.20759,0 -9.4245469,4.2169572 -9.4245469,9.4245472 0,1.503975 0.4203072,2.887773 1.0471719,4.149903 1.25238,0.461613 2.582757,0.775683 3.994767,0.775683 6.170955,0 11.099282,-4.861637 11.480106,-10.937129 C 23.523449,8.7641668 21.044374,7.3966938 18.156915,7.3966938 z" style="opacity:.83422457;color:#000;fill:url(#radialGradient3890);fill-opacity:1;fill-rule:evenodd;stroke:none;stroke-width:1;marker:none;visibility:visible;display:inline;overflow:visible"/></g></g><g id="layer1" style="display:inline"><g id="g4336" transform="matrix(0.5028156,0,0,0.5028156,6.3171967,5.1658557)"><g id="g4679" transform="translate(1.9888007,-1.9888007)"><path id="path3853" d="m 26.217967,10.60855 0,7.955203 3.977602,0 -10e-7,3.977601 7.955203,0 0,-11.932804 1e-6,0 -7.955203,0 z" style="fill:#85add6;fill-opacity:1;stroke:#3465a4;stroke-width:1.98880064px;stroke-linecap:butt;stroke-linejoin:miter;stroke-opacity:1"/><path id="path3855" d="m 28.206767,12.59735 0,3.977601 3.977603,1e-6 -1e-6,3.977601 3.977601,0 0,-7.955203 1e-6,10e-7 -3.977601,0 z" style="opacity:.41000001;fill:none;stroke:#eeeeec;stroke-width:1.98880064px;stroke-linecap:butt;stroke-linejoin:miter;stroke-opacity:1"/></g><g id="g4683" transform="matrix(0,-1,1,0,-2.2897877,46.77052)"><path id="path4685" d="m 26.217967,10.60855 0,7.955203 3.977602,0 -10e-7,3.977601 7.955203,0 0,-11.932804 1e-6,0 -7.955203,0 z" style="fill:#86aed6;fill-opacity:1;stroke:#3465a4;stroke-width:1.98880064px;stroke-linecap:butt;stroke-linejoin:miter;stroke-opacity:1"/><path id="path4687" d="m 28.206767,12.59735 0,3.977601 3.977603,1e-6 -1e-6,3.977601 3.977601,0 0,-7.955203 1e-6,10e-7 -3.977601,0 z" style="opacity:.41000001;fill:none;stroke:#eeeeec;stroke-width:1.98880064px;stroke-linecap:butt;stroke-linejoin:miter;stroke-opacity:1"/></g><g id="g4689" transform="matrix(-1,0,0,-1,46.469534,51.049102)"><path id="path4691" d="m 26.217967,10.60855 0,7.955203 3.977602,0 -10e-7,3.977601 7.955203,0 0,-11.932804 1e-6,0 -7.955203,0 z" style="fill:#518ac4;fill-opacity:1;stroke:#3465a4;stroke-width:1.98880064px;stroke-linecap:butt;stroke-linejoin:miter;stroke-opacity:1"/><path id="path4693" d="m 28.206767,12.59735 0,3.977601 3.977603,1e-6 -1e-6,3.977601 3.977601,0 0,-7.955203 1e-6,10e-7 -3.977601,0 z" style="opacity:.41000001;fill:none;stroke:#eeeeec;stroke-width:1.98880064px;stroke-linecap:butt;stroke-linejoin:miter;stroke-opacity:1"/></g><g id="g4695" transform="matrix(0,1,-1,0,50.748119,2.2897821)"><path id="path4697" d="m 26.217967,10.60855 0,7.955203 3.977602,0 -10e-7,3.977601 7.955203,0 0,-11.932804 1e-6,0 -7.955203,0 z" style="fill:#518ac4;fill-opacity:1;stroke:#3465a4;stroke-width:1.98880064px;stroke-linecap:butt;stroke-linejoin:miter;stroke-opacity:1"/><path id="path4699" d="m 28.206767,12.59735 0,3.977601 3.977603,1e-6 -1e-6,3.977601 3.977601,0 0,-7.955203 1e-6,10e-7 -3.977601,0 z" style="opacity:.41000001;fill:none;stroke:#eeeeec;stroke-width:1.98880064px;stroke-linecap:butt;stroke-linejoin:miter;stroke-opacity:1"/></g></g></g></svg>